<svg width="80" height="80" viewBox="0 0 80 80" fill="none" xmlns="http://www.w3.org/2000/svg">
  <!-- Doktorhut im Origami-Stil -->
  <!-- Hut-Basis (Raute) -->
  <path d="M 40 28 L 60 38 L 40 48 L 20 38 Z"
        fill="none"
        stroke="#3e4447"
        stroke-width="2"
        stroke-linejoin="miter"/>

  <!-- Mittellinie (Falte) -->
  <line x1="40" y1="28" x2="40" y2="48"
        stroke="#3e4447"
        stroke-width="1"
        opacity="0.3"/>

  <!-- Diagonale Strukturlinien -->
  <line x1="20" y1="38" x2="40" y2="48"
        stroke="#3e4447"
        stroke-width="1"
        opacity="0.2"/>
  <line x1="60" y1="38" x2="40" y2="48"
        stroke="#3e4447"
        stroke-width="1"
        opacity="0.2"/>

  <!-- Hut-Schirm (Viereck oben) -->
  <rect x="30" y="23" width="20" height="2"
        fill="#3e4447"
        opacity="0.8"/>

  <!-- Quaste -->
  <line x1="40" y1="23" x2="40" y2="18"
        stroke="#3e4447"
        stroke-width="1.5"/>
  <circle cx="40" cy="16" r="2"
          fill="#3e4447"/>

  <!-- Seitliche Bänder -->
  <path d="M 20 38 L 18 42 L 18 56 Q 18 58, 20 58 L 26 58 Q 28 58, 28 56 L 28 42"
        fill="none"
        stroke="#3e4447"
        stroke-width="2"
        stroke-linecap="round"/>

  <path d="M 60 38 L 62 42 L 62 56 Q 62 58, 60 58 L 54 58 Q 52 58, 52 56 L 52 42"
        fill="none"
        stroke="#3e4447"
        stroke-width="2"
        stroke-linecap="round"/>

  <!-- Strukturlinien an Bändern -->
  <line x1="18" y1="45" x2="28" y2="45"
        stroke="#3e4447"
        stroke-width="1"
        opacity="0.2"/>
  <line x1="52" y1="45" x2="62" y2="45"
        stroke="#3e4447"
        stroke-width="1"
        opacity="0.2"/>
</svg>
